{"title":"Homefront 2013 720p BrRip x264 Pimp4003","uid":9662650,"size":1818602196,"categoryP":"video","categoryS":"hd___movies","magnet":"?xt=urn:btih:522a113a8d6c2fef1e00194d9478538973de6978&amp;dn=Homefront+2013+720p+BrRip+x264+Pimp4003&amp;tr=udp%3A%2F%2Ftracker.openbittorrent.com%3A80&amp;tr=udp%3A%2F%2Fopen.demonii.com%3A1337&amp;tr=udp%3A%2F%2Ftracker.coppersurfer.tk%3A6969&amp;tr=udp%3A%2F%2Fexodus.desync.com%3A6969","seeders":0,"leechers":1,"uploader":"shawnmurthy","files":-1,"time":1393315069,"description":"Get all Pimp4003 newest releases first at \n\n[url]http://WWW.PIMP4003.NET[/url] with VIP downloads speed\n\nRegister here and you can chat, request movies, view upcoming uploads and much more\n\nUPLOAD UNLIMITED IMAGES AND UP TO 10MB IN FILE SIZES FOR FREE....\n\n[url]http://www.piczhub.com[/url]\n\n\nPIMP4003 AND PIMPRG PRESENTS\n\nHomefront 2013 720p BrRip x264 Pimp4003\n &lt;a href=&quot;\nhttp://www.imdb.com/title/tt2312718/&quot; rel=&quot;nofollow&quot; target=&quot;_NEW&quot;&gt;\nhttp://www.imdb.com/title/tt2312718/&lt;/a&gt;\n\nA former DEA agent moves his family to a quiet town, where he soon tangles with a local meth druglord.\n\nDirector: Gary Fleder\nWriters: Sylvester Stallone (screenplay), Chuck Logan (based on the novel by)\nStars: Jason Statham, James Franco, Winona Ryder | See full cast and crew Â»\n\nVideo\nID                                       : 1\nFormat                                   : AVC\nFormat/Info                              : Advanced Video Codec\nFormat profile                           : &lt;a class=&quot;__cf_email__&quot; href=&quot;/cdn-cgi/l/email-protection&quot; data-cfemail=&quot;0a476b63644a463e243a&quot;&gt;[email&amp;#160;protected]&lt;/a&gt;&lt;script cf-hash='f9e31' type=&quot;text/javascript&quot;&gt;\n/* &lt;![CDATA[ */!function(){try{var t=&quot;currentScript&quot;in document?document.currentScript:function(){for(var t=document.getElementsByTagName(&quot;script&quot;),e=t.length;e--;)if(t[e].getAttribute(&quot;cf-hash&quot;))return t[e]}();if(t&amp;&amp;t.previousSibling){var e,r,n,i,c=t.previousSibling,a=c.getAttribute(&quot;data-cfemail&quot;);if(a){for(e=&quot;&quot;,r=parseInt(a.substr(0,2),16),n=2;a.length-n;n+=2)i=parseInt(a.substr(n,2),16)^r,e+=String.fromCharCode(i);e=document.createTextNode(e),c.parentNode.replaceChild(e,c)}}}catch(u){}}();/* ]]&gt; */&lt;/script&gt;\nFormat settings, CABAC                   : Yes\nFormat settings, ReFrames                : 4 frames\nCodec ID                                 : avc1\nCodec ID/Info                            : Advanced Video Coding\nDuration                                 : 1h 40mn\nBit rate                                 : 2 246 Kbps\nWidth                                    : 1 280 pixels\nHeight                                   : 536 pixels\nDisplay aspect ratio                     : 2.40:1\nFrame rate mode                          : Variable\nFrame rate                               : 23.976 fps\nMinimum frame rate                       : 23.810 fps\nMaximum frame rate                       : 24.390 fps\nColor space                              : YUV\nChroma subsampling                       : 4:2:0\nBit depth                                : 8 bits\nScan type                                : Progressive\nBits/(Pixel*Frame)                       : 0.137\nStream size                              : 1.58 GiB (93%)\nWriting library                          : x264 core 130 r2273 b3065e6\nEncoding settings                        : cabac=1 / ref=1 / deblock=1:0:0 / analyse=0x1:0x111 / me=hex / subme=2 / psy=1 / psy_rd=1.00:0.00 / mixed_ref=0 / me_range=16 / chroma_me=1 / trellis=0 / 8x8dct=0 / cqm=0 / deadzone=21,11 / fast_pskip=1 / chroma_qp_offset=0 / threads=12 / lookahead_threads=4 / sliced_threads=0 / nr=0 / decimate=1 / interlaced=0 / bluray_compat=0 / constrained_intra=0 / bframes=3 / b_pyramid=2 / b_adapt=1 / b_bias=0 / direct=1 / weightb=1 / open_gop=0 / weightp=1 / keyint=240 / keyint_min=24 / scenecut=40 / intra_refresh=0 / rc_lookahead=10 / rc=crf / mbtree=1 / crf=20.0 / qcomp=0.60 / qpmin=0 / qpmax=69 / qpstep=4 / vbv_maxrate=20000 / vbv_bufsize=25000 / crf_max=0.0 / nal_hrd=none / ip_ratio=1.40 / aq=1:1.00\nEncoded date                             : UTC 2021-03-02 09:21:48\nTagged date                              : UTC 2021-03-02 09:35:55\nColor primaries                          : BT.709\nTransfer characteristics                 : BT.709\nMatrix coefficients                      : BT.709\n\nAudio\nID                                       : 2\nFormat                                   : AAC\nFormat/Info                              : Advanced Audio Codec\nFormat profile                           : LC\nCodec ID                                 : 40\nDuration                                 : 1h 40mn\nBit rate mode                            : Variable\nBit rate                                 : 160 Kbps\nMaximum bit rate                         : 309 Kbps\nChannel(s)                               : 2 channels\nChannel positions                        : Front: L R\nSampling rate                            : 48.0 KHz\nCompression mode                         : Lossy\nStream size                              : 115 MiB (7%)\nLanguage                                 : English\nEncoded date                             : UTC 2021-03-02 09:21:48\nTagged date                              : UTC 2021-03-02 09:35:54\n\nMenu\nID                                       : 3\nCodec ID                                 : text\nDuration                                 : 1h 40mn\nEncoded date                             : UTC 2021-03-02 09:21:48\nTagged date                              : UTC 2021-03-02 09:35:55\nBit rate mode                            : VBR\n &lt;a href=&quot;\nhttp://someimage.com/EbraJtb&quot; rel=&quot;nofollow&quot; target=&quot;_NEW&quot;&gt;\nhttp://someimage.com/EbraJtb&lt;/a&gt; &lt;a href=&quot;\nhttp://someimage.com/duS2Epc&quot; rel=&quot;nofollow&quot; target=&quot;_NEW&quot;&gt;\nhttp://someimage.com/duS2Epc&lt;/a&gt; &lt;a href=&quot;\nhttp://someimage.com/L2poDfE&quot; rel=&quot;nofollow&quot; target=&quot;_NEW&quot;&gt;\nhttp://someimage.com/L2poDfE&lt;/a&gt; &lt;a href=&quot;\nhttp://someimage.com/6X3HWUp&quot; rel=&quot;nofollow&quot; target=&quot;_NEW&quot;&gt;\nhttp://someimage.com/6X3HWUp&lt;/a&gt; &lt;a href=&quot;\nhttp://someimage.com/MNTgfS3&quot; rel=&quot;nofollow&quot; target=&quot;_NEW&quot;&gt;\nhttp://someimage.com/MNTgfS3&lt;/a&gt;\n","torrent":{"xt":"urn:btih:522a113a8d6c2fef1e00194d9478538973de6978","amp;dn":"Homefront+2013+720p+BrRip+x264+Pimp4003","amp;tr":["udp%3A%2F%2Ftracker.openbittorrent.com%3A80","udp%3A%2F%2Fopen.demonii.com%3A1337","udp%3A%2F%2Ftracker.coppersurfer.tk%3A6969","udp%3A%2F%2Fexodus.desync.com%3A6969"],"infoHash":"522a113a8d6c2fef1e00194d9478538973de6978","infoHashBuffer":{"type":"Buffer","data":[82,42,17,58,141,108,47,239,30,0,25,77,148,120,83,137,115,222,105,120]},"announce":[],"urlList":[]}}